<svg width="66" height="24" xmlns="http://www.w3.org/2000/svg"><path d="M2.635 4.451H1.36v7.293c0 1.241.204 1.989.748 2.686.731.969 1.989 1.564 3.298 1.564 1.292 0 2.533-.595 3.281-1.564.544-.697.748-1.462.748-2.686V4.451H8.16v6.953c0 1.173-.085 1.683-.374 2.176-.442.714-1.411 1.224-2.38 1.224-.986 0-1.955-.51-2.397-1.224-.289-.493-.374-1.003-.374-2.176zm13.124 5.406c-.442-.867-1.071-1.275-1.938-1.275-1.173 0-2.057.85-2.057 1.972 0 .935.408 1.343 2.04 2.057.884.374 1.139.629 1.139 1.173 0 .629-.493 1.105-1.156 1.105-.663 0-1.003-.289-1.411-1.139l-1.071.442c.459 1.19 1.292 1.802 2.465 1.802 1.377 0 2.414-.986 2.414-2.295 0-.663-.272-1.173-.782-1.547-.323-.238-.527-.34-1.343-.68-.901-.374-1.139-.595-1.139-1.003 0-.425.391-.782.85-.782.425 0 .731.221.986.697zm8.381 2.652v-.204c0-2.244-1.326-3.723-3.366-3.723-2.023 0-3.417 1.513-3.417 3.723 0 2.176 1.428 3.689 3.468 3.689 1.428 0 2.465-.629 3.247-2.006l-1.02-.578c-.68 1.088-1.241 1.479-2.176 1.479-1.275 0-2.176-.935-2.244-2.38zm-5.423-1.02c.17-1.054 1.054-1.819 2.074-1.819 1.037 0 1.853.714 2.074 1.819zm16.796-2.244c-.731-.476-1.36-.663-2.193-.663-2.125 0-3.757 1.615-3.757 3.723 0 2.074 1.632 3.689 3.74 3.689.816 0 1.394-.187 2.261-.731v-1.598c-.799.901-1.411 1.224-2.295 1.224-1.394 0-2.465-1.122-2.465-2.601 0-1.479 1.071-2.601 2.499-2.601.85 0 1.428.306 2.21 1.156zm4.981-.663c-2.057 0-3.74 1.632-3.74 3.638 0 2.125 1.615 3.774 3.706 3.774 2.125 0 3.757-1.615 3.757-3.706s-1.632-3.706-3.723-3.706zm-.017 1.105c1.445 0 2.499 1.088 2.499 2.601 0 1.53-1.054 2.601-2.516 2.601-1.445 0-2.465-1.105-2.465-2.635 0-1.462 1.054-2.567 2.482-2.567zm10.761-6.29v6.341c-.697-.799-1.462-1.156-2.465-1.156-1.938 0-3.366 1.547-3.366 3.672 0 2.159 1.445 3.74 3.4 3.74 1.003 0 1.836-.408 2.414-1.173v.969h1.224V3.397zm-2.261 6.29a2.43 2.43 0 0 1 1.615.646c.493.442.714 1.054.714 1.921 0 1.581-.935 2.635-2.346 2.635-1.343 0-2.312-1.122-2.312-2.669 0-1.428 1.003-2.533 2.329-2.533zm11.917 2.822v-.204c0-2.244-1.326-3.723-3.366-3.723-2.023 0-3.417 1.513-3.417 3.723 0 2.176 1.428 3.689 3.468 3.689 1.428 0 2.465-.629 3.247-2.006l-1.02-.578c-.68 1.088-1.241 1.479-2.176 1.479-1.275 0-2.176-.935-2.244-2.38zm-5.423-1.02c.17-1.054 1.054-1.819 2.074-1.819 1.037 0 1.853.714 2.074 1.819zm7.922 2.788a.842.842 0 1 0 .017 1.683.842.842 0 0 0-.017-1.683zm0-5.695a.831.831 0 0 0-.833.816c0 .476.374.85.833.85a.834.834 0 0 0 .833-.833.834.834 0 0 0-.833-.833z"/></svg>