<svg width="58" height="18" xmlns="http://www.w3.org/2000/svg"><path d="M5.893 3.24c-2.483 0-4.55 2.028-4.55 4.472 0 1.183.363 2.197 1.091 3.003.858.949 2.146 1.534 3.393 1.534 2.536 0 4.576-2.002 4.576-4.498a4.522 4.522 0 0 0-4.51-4.511zM5.88 4.475c1.82 0 3.21 1.43 3.21 3.276 0 1.833-1.417 3.263-3.25 3.263-.792 0-1.611-.338-2.222-.923-.65-.624-.962-1.391-.962-2.366 0-1.82 1.43-3.25 3.224-3.25zm9.1 3.913c1.157-.247 1.924-1.222 1.924-2.431 0-.832-.404-1.612-1.04-2.041-.546-.364-1.17-.507-2.289-.507h-1.534v8.671h1.313V8.531h.235l2.47 3.549h1.598zm-1.626-1.001V4.644h.469c.61 0 .987.091 1.3.299.312.221.507.611.507 1.027 0 .455-.209.871-.546 1.105-.3.208-.729.312-1.313.312zm10.063.182v1.235h2.157c-.117 1.222-1.287 2.21-2.587 2.21-.727 0-1.494-.312-2.105-.871-.69-.611-1.04-1.417-1.04-2.379 0-1.859 1.404-3.289 3.236-3.289 1.053 0 1.86.442 2.6 1.43l.936-.897c-.402-.468-.637-.689-.962-.923a4.378 4.378 0 0 0-2.6-.845 4.494 4.494 0 0 0-4.523 4.524c0 2.47 1.988 4.485 4.42 4.485 1.3 0 2.534-.611 3.288-1.638.534-.728.768-1.508.768-2.639v-.403zm10.308 2.405l.91 2.106h1.43l-4.133-9.217-4.29 9.217h1.404l.974-2.106zm-.532-1.235h-2.626l1.338-2.938zm3.965 3.341h1.313V6.009l6.318 6.604V3.409h-1.314v6.019l-6.318-6.604zM48.18 3.409h-1.313v8.671h1.313zm8.49.468c-.78-.455-1.417-.637-2.263-.637a4.552 4.552 0 0 0-4.575 4.55c0 2.47 2.002 4.459 4.485 4.459.845 0 1.586-.208 2.352-.65v-1.573c-.858.715-1.482.988-2.34.988-1.794 0-3.184-1.417-3.184-3.237 0-1.846 1.404-3.302 3.172-3.302.87 0 1.534.273 2.352.949z"/></svg>