<svg width="200" height="26" xmlns="http://www.w3.org/2000/svg"><path d="M3.525 9.505h1.85v-1.65h-1.85v-3.75H1.75v3.75H.675v1.65H1.75v8.725h1.775zM7.05.005V18.23h1.775v-5.175c0-1.225.125-1.975.425-2.575.375-.775 1.175-1.225 2.2-1.225 1.525 0 2.15.775 2.15 2.675v6.3h1.775v-6.425c0-1.35-.175-2.1-.6-2.75C14.2 8.18 13.05 7.63 11.8 7.63s-2.1.4-2.975 1.45V.005zm20.775 13.4v-.3c0-3.3-1.95-5.475-4.95-5.475-2.975 0-5.025 2.225-5.025 5.475 0 3.2 2.1 5.425 5.1 5.425 2.1 0 3.625-.925 4.775-2.95l-1.5-.85c-1 1.6-1.825 2.175-3.2 2.175-1.875 0-3.2-1.375-3.3-3.5zm-7.975-1.5c.25-1.55 1.55-2.675 3.05-2.675 1.525 0 2.725 1.05 3.05 2.675zm12.2-4.05h-1.775V18.23h1.775zm-.875-5.2c-.7 0-1.275.575-1.275 1.25 0 .725.575 1.3 1.275 1.3S32.45 4.63 32.45 3.93s-.575-1.275-1.275-1.275zm4.1 5.2V18.23h1.775v-5.475c0-1.25.125-2 .4-2.5.3-.575.975-.95 1.65-.95.375 0 .6.075 1.05.35l.825-1.6c-.625-.35-1-.45-1.575-.45-.975 0-1.425.275-2.35 1.375V7.855zm15.3 1.65H53.2v-1.65h-2.625v-4c0-1.875.3-2.375 1.425-2.375.4 0 .675.05 1.2.25v-1.8c-.575-.175-.85-.225-1.3-.225-1.075 0-1.95.375-2.5 1.1-.425.55-.6 1.375-.6 2.625v4.425h-.975v1.65h.975v8.725h1.775zm5.875-1.65h-1.775V18.23h1.775zm-.875-5.2c-.7 0-1.275.575-1.275 1.25 0 .725.575 1.3 1.275 1.3S56.85 4.63 56.85 3.93s-.575-1.275-1.275-1.275zm4.1 5.2V18.23h1.775v-5.475c0-1.25.125-2 .4-2.5.3-.575.975-.95 1.65-.95.375 0 .6.075 1.05.35l.825-1.6c-.625-.35-1-.45-1.575-.45-.975 0-1.425.275-2.35 1.375V7.855zM72.5 9.505c-.65-1.275-1.575-1.875-2.85-1.875-1.725 0-3.025 1.25-3.025 2.9 0 1.375.6 1.975 3 3.025 1.3.55 1.675.925 1.675 1.725 0 .925-.725 1.625-1.7 1.625s-1.475-.425-2.075-1.675l-1.575.65c.675 1.75 1.9 2.65 3.625 2.65 2.025 0 3.55-1.45 3.55-3.375 0-.975-.4-1.725-1.15-2.275-.475-.35-.775-.5-1.975-1-1.325-.55-1.675-.875-1.675-1.475 0-.625.575-1.15 1.25-1.15.625 0 1.075.325 1.45 1.025zm5 0h1.85v-1.65H77.5v-3.75h-1.775v3.75H74.65v1.65h1.075v8.725H77.5zm11.7 0h2.625v-1.65H89.2v-4c0-1.875.3-2.375 1.425-2.375.4 0 .675.05 1.2.25v-1.8c-.575-.175-.85-.225-1.3-.225-1.075 0-1.95.375-2.5 1.1-.425.55-.6 1.375-.6 2.625v4.425h-.975v1.65h.975v8.725H89.2zm11.975-1.65V9.33c-1.025-1.2-2.125-1.725-3.625-1.725-2.85 0-4.95 2.275-4.95 5.4 0 3.2 2.1 5.525 5 5.525 1.475 0 2.575-.55 3.575-1.75v1.45h1.775V7.855zM97.85 9.23c2.025 0 3.45 1.55 3.45 3.8 0 2.275-1.425 3.875-3.475 3.875-1.975 0-3.4-1.65-3.4-3.925 0-2.125 1.475-3.75 3.425-3.75zm8.7-1.375h-2l5.1 11.075 5.075-11.075h-2l-3.075 6.975zm14.575-.225c-3.025 0-5.5 2.4-5.5 5.35 0 3.125 2.375 5.55 5.45 5.55 3.125 0 5.525-2.375 5.525-5.45s-2.4-5.45-5.475-5.45zm-.025 1.625c2.125 0 3.675 1.6 3.675 3.825 0 2.25-1.55 3.825-3.7 3.825-2.125 0-3.625-1.625-3.625-3.875 0-2.15 1.55-3.775 3.65-3.775zm7.95-1.4V18.23h1.775v-5.475c0-1.25.125-2 .4-2.5.3-.575.975-.95 1.65-.95.375 0 .6.075 1.05.35l.825-1.6c-.625-.35-1-.45-1.575-.45-.975 0-1.425.275-2.35 1.375V7.855zm8.9 0h-1.775V18.23h1.775zm-.875-5.2c-.7 0-1.275.575-1.275 1.25 0 .725.575 1.3 1.275 1.3s1.275-.575 1.275-1.275-.575-1.275-1.275-1.275zm6.025 6.85h1.85v-1.65h-1.85v-3.75h-1.775v3.75h-1.075v1.65h1.075v8.725h1.775zm12.775 3.9v-.3c0-3.3-1.95-5.475-4.95-5.475-2.975 0-5.025 2.225-5.025 5.475 0 3.2 2.1 5.425 5.1 5.425 2.1 0 3.625-.925 4.775-2.95l-1.5-.85c-1 1.6-1.825 2.175-3.2 2.175-1.875 0-3.2-1.375-3.3-3.5zm-7.975-1.5c.25-1.55 1.55-2.675 3.05-2.675 1.525 0 2.725 1.05 3.05 2.675zm18.45 12.175v-7.3c1.025 1.225 2.15 1.75 3.625 1.75 2.85 0 4.95-2.3 4.95-5.425 0-3.175-2.1-5.5-5-5.5-1.45 0-2.575.525-3.575 1.725V7.855h-1.775V24.08zm3.35-14.85c1.975 0 3.4 1.65 3.4 3.925 0 2.125-1.475 3.75-3.4 3.75-2.025 0-3.475-1.575-3.475-3.8 0-2.275 1.45-3.875 3.475-3.875zm9.475-1.375H177.4V24.08h1.775zm-.875-5.2c-.7 0-1.275.575-1.275 1.25 0 .725.575 1.3 1.275 1.3s1.275-.575 1.275-1.275S179 2.655 178.3 2.655zm5.2 5.6l.35-6.7h-2.025l.325 6.7zm8.675 1.25c-.65-1.275-1.575-1.875-2.85-1.875-1.725 0-3.025 1.25-3.025 2.9 0 1.375.6 1.975 3 3.025 1.3.55 1.675.925 1.675 1.725 0 .925-.725 1.625-1.7 1.625s-1.475-.425-2.075-1.675l-1.575.65c.675 1.75 1.9 2.65 3.625 2.65 2.025 0 3.55-1.45 3.55-3.375 0-.975-.4-1.725-1.15-2.275-.475-.35-.775-.5-1.975-1-1.325-.55-1.675-.875-1.675-1.475 0-.625.575-1.15 1.25-1.15.625 0 1.075.325 1.45 1.025z"/></svg>