<svg width="107" height="24" xmlns="http://www.w3.org/2000/svg"><path d="M1.309 16.13h3.825c1.258 0 2.159-.272 2.822-.867.646-.578 1.003-1.428 1.003-2.329 0-.833-.306-1.632-.816-2.142-.357-.374-.714-.544-1.479-.714.442-.272.629-.425.816-.68.255-.408.425-1.003.425-1.615 0-.935-.391-1.819-1.02-2.312-.578-.459-1.462-.68-2.771-.68H1.309zm2.21-6.613V6.576h.663c1.105 0 1.683.493 1.683 1.462 0 .986-.578 1.479-1.717 1.479zm0 4.828V11.2h.833c.918 0 1.275.068 1.666.323.425.255.663.714.663 1.258 0 1.054-.714 1.564-2.21 1.564zm14.195-.612l.969 2.397h2.363l-4.76-11.577H14.62L9.707 16.13h2.346l1.02-2.397zm-.697-1.785h-3.23l1.649-4.08zm5.372 4.182h3.825c1.258 0 2.159-.272 2.822-.867.646-.578 1.003-1.428 1.003-2.329 0-.833-.306-1.632-.816-2.142-.357-.374-.714-.544-1.479-.714.442-.272.629-.425.816-.68.255-.408.425-1.003.425-1.615 0-.935-.391-1.819-1.02-2.312-.578-.459-1.462-.68-2.771-.68h-2.805zm2.21-6.613V6.576h.663c1.105 0 1.683.493 1.683 1.462 0 .986-.578 1.479-1.717 1.479zm0 4.828V11.2h.833c.918 0 1.275.068 1.666.323.425.255.663.714.663 1.258 0 1.054-.714 1.564-2.21 1.564zm9.996-3.417v5.202h2.21v-5.202l3.978-6.137h-2.635l-2.397 3.944-2.448-3.944h-2.618zm7.395 5.202h3.825c1.258 0 2.159-.272 2.822-.867.646-.578 1.003-1.428 1.003-2.329 0-.833-.306-1.632-.816-2.142-.357-.374-.714-.544-1.479-.714.442-.272.629-.425.816-.68.255-.408.425-1.003.425-1.615 0-.935-.391-1.819-1.02-2.312-.578-.459-1.462-.68-2.771-.68H41.99zm2.21-6.613V6.576h.663c1.105 0 1.683.493 1.683 1.462 0 .986-.578 1.479-1.717 1.479zm0 4.828V11.2h.833c.918 0 1.275.068 1.666.323.425.255.663.714.663 1.258 0 1.054-.714 1.564-2.21 1.564zm9.69-9.554h-2.21v6.936c0 1.326.255 2.261.833 3.026.782 1.02 2.176 1.632 3.723 1.632 1.547 0 2.941-.612 3.723-1.632.578-.765.833-1.7.833-3.026V4.791h-2.21v6.494c0 1.156-.068 1.53-.357 2.023-.374.646-1.139 1.054-1.989 1.054-.85 0-1.615-.408-1.989-1.054-.289-.493-.357-.867-.357-2.023zm8.891 11.339h2.227l1.139-6.987 3.009 7.14h.612l3.111-7.14 1.02 6.987h2.227L74.239 4.587h-1.53l-3.213 7.412-3.094-7.412h-1.513zm17.578-4.199h1.428c1.343 0 2.261-.323 2.907-1.003.578-.629.918-1.547.918-2.533 0-1.088-.425-2.074-1.156-2.737-.714-.629-1.513-.867-2.992-.867h-3.315V16.13h2.21zm0-1.921V6.712h.765c.816 0 1.292.102 1.632.357.357.272.578.765.578 1.309 0 1.088-.697 1.632-2.074 1.632zm9.996 4.199l1.972-2.091c1.445-1.53 2.057-2.703 2.057-3.961 0-2.108-1.7-3.655-3.995-3.655s-3.825 1.479-3.978 3.825h2.363c.051-1.173.663-1.87 1.683-1.87.952 0 1.717.748 1.717 1.717 0 .952-.544 1.819-2.601 4.165l-3.349 3.791h8.245v-1.921zm10.047-9.707c-1.241 0-2.397.629-3.23 1.734-.765 1.037-1.173 2.482-1.173 4.131 0 1.853.374 3.196 1.173 4.318.799 1.105 1.972 1.734 3.23 1.734 1.241 0 2.414-.646 3.213-1.734.782-1.105 1.173-2.482 1.173-4.233 0-1.751-.391-3.128-1.173-4.216-.816-1.105-1.972-1.734-3.213-1.734zm0 1.955c1.275 0 2.176 1.666 2.176 3.995 0 2.346-.901 4.012-2.176 4.012-1.292 0-2.193-1.666-2.193-4.063 0-2.278.918-3.944 2.193-3.944z" fill="#fff"/></svg>