<svg width="137" height="20" xmlns="http://www.w3.org/2000/svg"><path d="M22.289 4.834a4.087 4.087 0 0 0-2.744-1.036c-1.68 0-2.912 1.148-2.912 2.716 0 1.232.616 1.904 2.296 2.52.756.28 1.12.434 1.302.56.336.238.504.56.504.938 0 .77-.602 1.316-1.442 1.316s-1.54-.448-1.96-1.246l-1.176 1.134c.84 1.218 1.848 1.778 3.206 1.778 1.932 0 3.248-1.246 3.248-3.08 0-.826-.28-1.498-.826-1.96-.42-.364-.84-.56-1.862-.938-1.092-.406-1.414-.672-1.414-1.176 0-.574.574-1.036 1.316-1.036.588 0 1.022.21 1.512.756zm5.752 2.73V3.952h-1.82v9.338h1.82V9.146h3.948v4.144h1.82V3.952h-1.82v3.612zm14.446-3.822c-2.772 0-5.012 2.156-5.012 4.816 0 2.8 2.142 4.942 4.942 4.942 2.842 0 5.04-2.114 5.04-4.872 0-2.744-2.184-4.886-4.97-4.886zm-.028 1.666c1.736 0 3.122 1.428 3.122 3.206s-1.4 3.22-3.108 3.22c-1.736 0-3.122-1.442-3.122-3.248 0-1.736 1.414-3.178 3.108-3.178zm10.498 4.424h1.176c1.106 0 1.862-.266 2.394-.826.476-.518.756-1.274.756-2.086 0-.896-.35-1.708-.952-2.254-.588-.518-1.246-.714-2.464-.714h-2.73v9.338h1.82zm0-1.582V5.534h.63c.672 0 1.064.084 1.344.294.294.224.476.63.476 1.078 0 .896-.574 1.344-1.708 1.344zm13.17 5.04h1.82V6.976l5.684 6.496h1.26v-9.52h-1.82v6.286l-5.684-6.496h-1.26zm17.442-9.548c-2.772 0-5.012 2.156-5.012 4.816 0 2.8 2.142 4.942 4.942 4.942 2.842 0 5.04-2.114 5.04-4.872 0-2.744-2.184-4.886-4.97-4.886zm-.028 1.666c1.736 0 3.122 1.428 3.122 3.206s-1.4 3.22-3.108 3.22c-1.736 0-3.122-1.442-3.122-3.248 0-1.736 1.414-3.178 3.108-3.178zm9.532-1.456h-1.918l3.304 9.52h1.274l2.184-6.104 2.072 6.104h1.274l3.514-9.52h-1.918l-2.24 6.356-2.17-6.44h-.994l-2.282 6.44zm19.694 8.526l6.062-3.094V7.858l-6.062-3.094v1.792l4.144 2.058-4.144 2.058z"/></svg>