<svg width="65" height="18" xmlns="http://www.w3.org/2000/svg"><path d="M6.864 4.696c-.585-1.014-1.3-1.456-2.34-1.456-1.482 0-2.6.988-2.6 2.301 0 .975.572 1.69 1.781 2.197 1.17.494 1.17.494 1.469.689.39.273.598.65.598 1.144 0 .832-.598 1.443-1.417 1.443-.533 0-1.027-.26-1.248-.676-.13-.221-.182-.429-.247-.949l-1.326.299c.091.65.221.988.507 1.404.507.741 1.313 1.157 2.262 1.157 1.599 0 2.782-1.183 2.782-2.769 0-1.196-.624-1.976-2.028-2.561-1.144-.468-1.144-.468-1.391-.637-.286-.195-.416-.442-.416-.728 0-.611.546-1.079 1.261-1.079.598 0 .897.195 1.3.858zm3.107-1.287H8.658v5.577c0 .845.208 1.469.663 2.041a3.275 3.275 0 0 0 2.548 1.222 3.25 3.25 0 0 0 2.535-1.222c.455-.572.663-1.209.663-2.041V3.409h-1.313v5.226c0 .767-.065 1.131-.273 1.495-.312.546-.936.884-1.612.884-.689 0-1.313-.338-1.625-.884-.208-.364-.273-.728-.273-1.495zm8.489 5.148h.611c.949 0 1.677-.247 2.184-.741.468-.442.754-1.131.754-1.833 0-.793-.364-1.573-.949-2.028-.559-.416-1.105-.546-2.431-.546h-1.482v8.671h1.313zm0-1.209v-2.73h.429c.676 0 1.066.091 1.378.312.299.221.481.611.481 1.027 0 .416-.169.806-.442 1.04-.299.247-.689.351-1.365.351zm9.672-2.704V3.409h-4.784v8.671h4.784v-1.235h-3.471V7.959h3.367V6.724h-3.367v-2.08zm4.654 3.744c1.157-.247 1.924-1.222 1.924-2.431 0-.832-.403-1.612-1.04-2.041-.546-.364-1.17-.507-2.288-.507h-1.534v8.671h1.313V8.531h.234l2.47 3.549h1.599zm-1.625-1.001V4.644h.468c.611 0 .988.091 1.3.299.312.221.507.611.507 1.027 0 .455-.208.871-.546 1.105-.299.208-.728.312-1.313.312zm10.504-2.691c-.585-1.014-1.3-1.456-2.34-1.456-1.482 0-2.6.988-2.6 2.301 0 .975.572 1.69 1.781 2.197 1.17.494 1.17.494 1.469.689.39.273.598.65.598 1.144 0 .832-.598 1.443-1.417 1.443-.533 0-1.027-.26-1.248-.676-.13-.221-.182-.429-.247-.949l-1.326.299c.091.65.221.988.507 1.404.507.741 1.313 1.157 2.262 1.157 1.599 0 2.782-1.183 2.782-2.769 0-1.196-.624-1.976-2.028-2.561-1.144-.468-1.144-.468-1.391-.637-.286-.195-.416-.442-.416-.728 0-.611.546-1.079 1.261-1.079.598 0 .897.195 1.3.858zM47.58 3.24c-2.483 0-4.55 2.028-4.55 4.472 0 1.183.364 2.197 1.092 3.003.858.949 2.145 1.534 3.393 1.534 2.535 0 4.576-2.002 4.576-4.498A4.522 4.522 0 0 0 47.58 3.24zm-.013 1.235c1.82 0 3.211 1.43 3.211 3.276 0 1.833-1.417 3.263-3.25 3.263-.793 0-1.612-.338-2.223-.923-.65-.624-.962-1.391-.962-2.366 0-1.82 1.43-3.25 3.224-3.25zm10.491.169V3.409h-4.329v8.671h1.313V7.959h2.912V6.724h-2.912v-2.08zm3.9 0h1.989V3.409h-5.291v1.235h1.989v7.436h1.313z"/></svg>