<svg width="100" height="26" xmlns="http://www.w3.org/2000/svg"><path d="M12 15.905l2.9-3.075c2.125-2.25 3.025-3.975 3.025-5.825 0-3.1-2.5-5.375-5.875-5.375S6.425 3.805 6.2 7.255h3.475c.075-1.725.975-2.75 2.475-2.75 1.4 0 2.525 1.1 2.525 2.525 0 1.4-.8 2.675-3.825 6.125L5.925 18.73H18.05v-2.825zM26.775 1.63c-1.825 0-3.525.925-4.75 2.55C20.9 5.705 20.3 7.83 20.3 10.255c0 2.725.55 4.7 1.725 6.35 1.175 1.625 2.9 2.55 4.75 2.55 1.825 0 3.55-.95 4.725-2.55 1.15-1.625 1.725-3.65 1.725-6.225 0-2.575-.575-4.6-1.725-6.2-1.2-1.625-2.9-2.55-4.725-2.55zm0 2.875c1.875 0 3.2 2.45 3.2 5.875 0 3.45-1.325 5.9-3.2 5.9-1.9 0-3.225-2.45-3.225-5.975 0-3.35 1.35-5.8 3.225-5.8zm12.075-2.65c-2.425 0-4.25 1.675-4.25 3.9 0 2.325 1.75 4 4.2 4 2.475 0 4.275-1.675 4.275-3.975 0-2.25-1.8-3.925-4.225-3.925zm-.025 1.8c1.2 0 2.175.975 2.175 2.15 0 1.2-.975 2.175-2.15 2.175-1.2 0-2.175-.975-2.175-2.2 0-1.15.975-2.125 2.15-2.125zm9-2.15L37.9 18.655l1.325.775L49.15 2.255zm.45 9.6c-2.425 0-4.25 1.675-4.25 3.875 0 2.325 1.75 4 4.2 4s4.25-1.675 4.25-3.95c0-2.25-1.8-3.925-4.2-3.925zm-.025 1.775c1.2 0 2.15.975 2.15 2.15 0 1.2-.975 2.175-2.15 2.175-1.2 0-2.15-.975-2.15-2.2 0-1.15.975-2.125 2.15-2.125zm18.325-5.325c-3.625 0-6.225 2.375-6.225 5.675 0 3.475 2.5 5.85 6.125 5.85 3.7 0 6.25-2.35 6.25-5.775 0-3.4-2.525-5.75-6.15-5.75zm-.05 2.725c1.7 0 3.075 1.35 3.075 3.05 0 1.675-1.375 3.025-3.05 3.025a3.041 3.041 0 0 1-3.075-3.075c0-1.625 1.4-3 3.05-3zm11.65.25h2.775V7.905h-2.775V4.88c0-.85.05-1.3.225-1.675.175-.475.65-.775 1.175-.775.4 0 .725.1 1.375.4V.08c-.65-.3-1-.375-1.6-.375-1.2 0-2.375.525-3.2 1.425-.725.825-1 1.7-1 3.3v3.475h-1.175v2.625h1.175v8.2h3.025zm7.325 0h2.775V7.905H85.5V4.88c0-.85.05-1.3.225-1.675.175-.475.65-.775 1.175-.775.4 0 .725.1 1.375.4V.08c-.65-.3-1-.375-1.6-.375-1.2 0-2.375.525-3.2 1.425-.725.825-1 1.7-1 3.3v3.475H81.3v2.625h1.175v8.2H85.5z"/></svg>