<svg width="288" height="47" xmlns="http://www.w3.org/2000/svg"><path d="M3.048.004H1.344V17.5h1.704zM15 12.868v-.288c0-3.168-1.872-5.256-4.752-5.256-2.856 0-4.824 2.136-4.824 5.256 0 3.072 2.016 5.208 4.896 5.208 2.016 0 3.48-.888 4.584-2.832l-1.44-.816c-.96 1.536-1.752 2.088-3.072 2.088-1.8 0-3.072-1.32-3.168-3.36zm-7.656-1.44c.24-1.488 1.488-2.568 2.928-2.568 1.464 0 2.616 1.008 2.928 2.568zM26.616 7.54h-1.704v1.416C24 7.828 22.896 7.3 21.48 7.3c-2.784 0-4.824 2.232-4.824 5.256 0 2.976 2.04 5.208 4.752 5.208 1.344 0 2.52-.552 3.504-1.632v1.44c0 1.224-.192 2.064-.648 2.688-.528.768-1.464 1.224-2.544 1.224-1.152 0-2.208-.504-2.712-1.32-.288-.456-.408-.84-.48-1.68h-1.68c.096 2.784 1.968 4.56 4.824 4.56 1.656 0 3.096-.672 3.984-1.848.72-.96.96-1.92.96-3.912zm-4.944 1.296c.792 0 1.608.312 2.232.864.744.672 1.08 1.584 1.08 2.856 0 2.16-1.392 3.672-3.336 3.672-1.896 0-3.24-1.512-3.24-3.696 0-2.136 1.368-3.696 3.264-3.696zm16.896 4.032v-.288c0-3.168-1.872-5.256-4.752-5.256-2.856 0-4.824 2.136-4.824 5.256 0 3.072 2.016 5.208 4.896 5.208 2.016 0 3.48-.888 4.584-2.832l-1.44-.816c-.96 1.536-1.752 2.088-3.072 2.088-1.8 0-3.072-1.32-3.168-3.36zm-7.656-1.44C31.152 9.94 32.4 8.86 33.84 8.86c1.464 0 2.616 1.008 2.928 2.568zM40.92 7.54v9.96h1.704v-4.968c0-2.592.744-3.696 2.472-3.696.816 0 1.464.312 1.776.84.264.408.336.888.336 1.944v5.88h1.704v-6.168c0-1.296-.168-2.04-.552-2.664-.552-.84-1.656-1.368-2.856-1.368-1.248 0-2.016.384-2.88 1.44v-1.2zM59.544.004v8.952c-.984-1.128-2.064-1.632-3.48-1.632-2.736 0-4.752 2.184-4.752 5.184 0 3.048 2.04 5.28 4.8 5.28 1.416 0 2.592-.576 3.408-1.656V17.5h1.728V.004zm-3.192 8.88c.816 0 1.656.336 2.28.912.696.624 1.008 1.488 1.008 2.712 0 2.232-1.32 3.72-3.312 3.72-1.896 0-3.264-1.584-3.264-3.768 0-2.016 1.416-3.576 3.288-3.576zM71.856 7.54v1.416c-.984-1.152-2.04-1.656-3.48-1.656-2.736 0-4.752 2.184-4.752 5.184 0 3.072 2.016 5.304 4.8 5.304 1.416 0 2.472-.528 3.432-1.68V17.5h1.704V7.54zm-3.192 1.32c1.944 0 3.312 1.488 3.312 3.648 0 2.184-1.368 3.72-3.336 3.72-1.896 0-3.264-1.584-3.264-3.768 0-2.04 1.416-3.6 3.288-3.6zm7.944-1.32v9.96h1.704v-5.256c0-1.2.12-1.92.384-2.4.288-.552.936-.912 1.584-.912.36 0 .576.072 1.008.336l.792-1.536c-.6-.336-.96-.432-1.512-.432-.936 0-1.368.264-2.256 1.32V7.54zm9.912 9.024l-3.216 6.552h1.92L92.592 7.54h-1.944l-3.216 7.128-3.528-7.128h-1.968zm21.168 6.552h1.704V7.54h-1.728v1.416c-.816-1.08-1.992-1.656-3.408-1.656-2.784 0-4.8 2.232-4.8 5.28 0 3 2.016 5.208 4.752 5.208 1.416 0 2.496-.528 3.48-1.68zM104.496 8.86c1.968 0 3.288 1.512 3.288 3.72 0 1.032-.264 1.92-.744 2.472a3.41 3.41 0 0 1-2.568 1.176c-1.896 0-3.264-1.56-3.264-3.72 0-2.088 1.416-3.648 3.288-3.648zm9.648-1.32h-1.704v6c0 1.464.24 2.256.912 3 .72.816 1.8 1.248 3.048 1.248 1.224 0 2.304-.432 3.024-1.248.672-.744.912-1.536.912-3v-6h-1.704v5.808c0 .936-.096 1.44-.312 1.872-.336.624-1.08 1.008-1.92 1.008-.864 0-1.608-.384-1.944-1.008-.216-.432-.312-.936-.312-1.872zm16.824 0v1.416c-.984-1.152-2.04-1.656-3.48-1.656-2.736 0-4.752 2.184-4.752 5.184 0 3.072 2.016 5.304 4.8 5.304 1.416 0 2.472-.528 3.432-1.68V17.5h1.704V7.54zm-3.192 1.32c1.944 0 3.312 1.488 3.312 3.648 0 2.184-1.368 3.72-3.336 3.72-1.896 0-3.264-1.584-3.264-3.768 0-2.04 1.416-3.6 3.288-3.6zm9.648-8.856h-1.704V17.5h1.704zM142.2 7.54h-1.704v9.96h1.704zm-.84-4.992c-.672 0-1.224.552-1.224 1.2 0 .696.552 1.248 1.224 1.248a1.23 1.23 0 0 0 1.224-1.224 1.23 1.23 0 0 0-1.224-1.224zm5.784 6.576h1.776V7.54h-1.776v-3.6h-1.704v3.6h-1.032v1.584h1.032V17.5h1.704zm6.456 7.44l-3.216 6.552h1.92l7.368-15.576h-1.944l-3.216 7.128-3.528-7.128h-1.968zm8.64-1.416l-1.992 5.544 1.152.456 2.4-5.424zm15.888-6.024c-.624-1.224-1.512-1.8-2.736-1.8-1.656 0-2.904 1.2-2.904 2.784 0 1.32.576 1.896 2.88 2.904 1.248.528 1.608.888 1.608 1.656 0 .888-.696 1.56-1.632 1.56-.936 0-1.416-.408-1.992-1.608l-1.512.624c.648 1.68 1.824 2.544 3.48 2.544 1.944 0 3.408-1.392 3.408-3.24 0-.936-.384-1.656-1.104-2.184-.456-.336-.744-.48-1.896-.96-1.272-.528-1.608-.84-1.608-1.416 0-.6.552-1.104 1.2-1.104.6 0 1.032.312 1.392.984zM188.64 7.54v1.416c-.984-1.152-2.04-1.656-3.48-1.656-2.736 0-4.752 2.184-4.752 5.184 0 3.072 2.016 5.304 4.8 5.304 1.416 0 2.472-.528 3.432-1.68V17.5h1.704V7.54zm-3.192 1.32c1.944 0 3.312 1.488 3.312 3.648 0 2.184-1.368 3.72-3.336 3.72-1.896 0-3.264-1.584-3.264-3.768 0-2.04 1.416-3.6 3.288-3.6zm9.792.264h2.52V7.54h-2.52V3.7c0-1.8.288-2.28 1.368-2.28.384 0 .648.048 1.152.24V-.068c-.552-.168-.816-.216-1.248-.216-1.032 0-1.872.36-2.4 1.056-.408.528-.576 1.32-.576 2.52V7.54h-.936v1.584h.936V17.5h1.704zm12.816 3.744v-.288c0-3.168-1.872-5.256-4.752-5.256-2.856 0-4.824 2.136-4.824 5.256 0 3.072 2.016 5.208 4.896 5.208 2.016 0 3.48-.888 4.584-2.832l-1.44-.816c-.96 1.536-1.752 2.088-3.072 2.088-1.8 0-3.072-1.32-3.168-3.36zm-7.656-1.44c.24-1.488 1.488-2.568 2.928-2.568 1.464 0 2.616 1.008 2.928 2.568zm23.568-3.888v1.416c-.984-1.152-2.04-1.656-3.48-1.656-2.736 0-4.752 2.184-4.752 5.184 0 3.072 2.016 5.304 4.8 5.304 1.416 0 2.472-.528 3.432-1.68V17.5h1.704V7.54zm-3.192 1.32c1.944 0 3.312 1.488 3.312 3.648 0 2.184-1.368 3.72-3.336 3.72-1.896 0-3.264-1.584-3.264-3.768 0-2.04 1.416-3.6 3.288-3.6zm7.944-1.32v9.96h1.704v-4.968c0-2.592.744-3.696 2.472-3.696.816 0 1.464.312 1.776.84.264.408.336.888.336 1.944v5.88h1.704v-6.168c0-1.296-.168-2.04-.552-2.664-.552-.84-1.656-1.368-2.856-1.368-1.248 0-2.016.384-2.88 1.44v-1.2zM247.344.004v8.952c-.984-1.128-2.064-1.632-3.48-1.632-2.736 0-4.752 2.184-4.752 5.184 0 3.048 2.04 5.28 4.8 5.28 1.416 0 2.592-.576 3.408-1.656V17.5h1.728V.004zm-3.192 8.88c.816 0 1.656.336 2.28.912.696.624 1.008 1.488 1.008 2.712 0 2.232-1.32 3.72-3.312 3.72-1.896 0-3.264-1.584-3.264-3.768 0-2.016 1.416-3.576 3.288-3.576zm19.416.24c-.624-1.224-1.512-1.8-2.736-1.8-1.656 0-2.904 1.2-2.904 2.784 0 1.32.576 1.896 2.88 2.904 1.248.528 1.608.888 1.608 1.656 0 .888-.696 1.56-1.632 1.56-.936 0-1.416-.408-1.992-1.608l-1.512.624c.648 1.68 1.824 2.544 3.48 2.544 1.944 0 3.408-1.392 3.408-3.24 0-.936-.384-1.656-1.104-2.184-.456-.336-.744-.48-1.896-.96-1.272-.528-1.608-.84-1.608-1.416 0-.6.552-1.104 1.2-1.104.6 0 1.032.312 1.392.984zm7.536-1.8c-2.904 0-5.28 2.304-5.28 5.136 0 3 2.28 5.328 5.232 5.328 3 0 5.304-2.28 5.304-5.232 0-2.952-2.304-5.232-5.256-5.232zm-.024 1.56c2.04 0 3.528 1.536 3.528 3.672 0 2.16-1.488 3.672-3.552 3.672-2.04 0-3.48-1.56-3.48-3.72 0-2.064 1.488-3.624 3.504-3.624zm9.48.24h2.52V7.54h-2.52V3.7c0-1.8.288-2.28 1.368-2.28.384 0 .648.048 1.152.24V-.068c-.552-.168-.816-.216-1.248-.216-1.032 0-1.872.36-2.4 1.056-.408.528-.576 1.32-.576 2.52V7.54h-.936v1.584h.936V17.5h1.704zm5.784 0h1.776V7.54h-1.776v-3.6h-1.704v3.6h-1.032v1.584h1.032V17.5h1.704zM61.668 31.54v9.96h1.704v-4.968c0-2.592.744-3.696 2.472-3.696.816 0 1.464.312 1.776.84.264.408.336.888.336 1.944v5.88h1.704v-6.168c0-1.296-.168-2.04-.552-2.664-.552-.84-1.656-1.368-2.856-1.368-1.248 0-2.016.384-2.88 1.44v-1.2zm19.944 5.328v-.288c0-3.168-1.872-5.256-4.752-5.256-2.856 0-4.824 2.136-4.824 5.256 0 3.072 2.016 5.208 4.896 5.208 2.016 0 3.48-.888 4.584-2.832l-1.44-.816c-.96 1.536-1.752 2.088-3.072 2.088-1.8 0-3.072-1.32-3.168-3.36zm-7.656-1.44c.24-1.488 1.488-2.568 2.928-2.568 1.464 0 2.616 1.008 2.928 2.568zm12.768.768L82.476 41.5h2.136l3.168-4.056 3.144 4.056h2.064l-4.128-5.304 3.648-4.656h-2.112l-2.616 3.384-2.592-3.384H83.1zm9.768-3.072h1.776V31.54h-1.776v-3.6h-1.704v3.6h-1.032v1.584h1.032V41.5h1.704zm11.232 0h1.776V31.54h-1.776v-3.6h-1.704v3.6h-1.032v1.584h1.032V41.5h1.704zm7.968-1.8c-2.904 0-5.28 2.304-5.28 5.136 0 3 2.28 5.328 5.232 5.328 3 0 5.304-2.28 5.304-5.232 0-2.952-2.304-5.232-5.256-5.232zm-.024 1.56c2.04 0 3.528 1.536 3.528 3.672 0 2.16-1.488 3.672-3.552 3.672-2.04 0-3.48-1.56-3.48-3.72 0-2.064 1.488-3.624 3.504-3.624zm15.336-8.88H129.3V41.5h1.704v-1.368c.936 1.128 2.04 1.656 3.432 1.656 2.76 0 4.8-2.232 4.8-5.28 0-3-2.016-5.184-4.752-5.184-1.44 0-2.496.504-3.48 1.632zm3.216 8.88c1.896 0 3.264 1.56 3.264 3.696 0 2.088-1.416 3.648-3.288 3.648-1.944 0-3.312-1.536-3.312-3.696 0-2.184 1.368-3.648 3.336-3.648zm14.952-1.344v1.416c-.984-1.152-2.04-1.656-3.48-1.656-2.736 0-4.752 2.184-4.752 5.184 0 3.072 2.016 5.304 4.8 5.304 1.416 0 2.472-.528 3.432-1.68V41.5h1.704v-9.96zm-3.192 1.32c1.944 0 3.312 1.488 3.312 3.648 0 2.184-1.368 3.72-3.336 3.72-1.896 0-3.264-1.584-3.264-3.768 0-2.04 1.416-3.6 3.288-3.6zm9.648-8.856h-1.704V41.5h1.704v-1.368c.936 1.128 2.04 1.656 3.432 1.656 2.76 0 4.8-2.232 4.8-5.28 0-3-2.016-5.184-4.752-5.184-1.44 0-2.496.504-3.48 1.632zm3.216 8.88c1.896 0 3.264 1.56 3.264 3.696 0 2.088-1.416 3.648-3.288 3.648-1.944 0-3.312-1.536-3.312-3.696 0-2.184 1.368-3.648 3.336-3.648zm10.464 7.68l-3.216 6.552h1.92l7.368-15.576h-1.944l-3.216 7.128-3.528-7.128h-1.968zm8.664-8.64l.336-6.432h-1.944l.312 6.432zm8.328 1.2c-.624-1.224-1.512-1.8-2.736-1.8-1.656 0-2.904 1.2-2.904 2.784 0 1.32.576 1.896 2.88 2.904 1.248.528 1.608.888 1.608 1.656 0 .888-.696 1.56-1.632 1.56-.936 0-1.416-.408-1.992-1.608l-1.512.624c.648 1.68 1.824 2.544 3.48 2.544 1.944 0 3.408-1.392 3.408-3.24 0-.936-.384-1.656-1.104-2.184-.456-.336-.744-.48-1.896-.96-1.272-.528-1.608-.84-1.608-1.416 0-.6.552-1.104 1.2-1.104.6 0 1.032.312 1.392.984zm14.424 0c-.624-1.224-1.512-1.8-2.736-1.8-1.656 0-2.904 1.2-2.904 2.784 0 1.32.576 1.896 2.88 2.904 1.248.528 1.608.888 1.608 1.656 0 .888-.696 1.56-1.632 1.56-.936 0-1.416-.408-1.992-1.608l-1.512.624c.648 1.68 1.824 2.544 3.48 2.544 1.944 0 3.408-1.392 3.408-3.24 0-.936-.384-1.656-1.104-2.184-.456-.336-.744-.48-1.896-.96-1.272-.528-1.608-.84-1.608-1.416 0-.6.552-1.104 1.2-1.104.6 0 1.032.312 1.392.984zm4.656-9.12h-1.704V41.5h1.704v-4.104l.432-.432 4.008 4.536h2.256l-5.064-5.712 4.248-4.248h-2.28l-3.6 3.672zm9.864 7.536h-1.704v9.96h1.704zm-.84-4.992c-.672 0-1.224.552-1.224 1.2 0 .696.552 1.248 1.224 1.248a1.23 1.23 0 0 0 1.224-1.224 1.23 1.23 0 0 0-1.224-1.224zm3.936 4.992v9.96h1.704v-4.968c0-2.592.744-3.696 2.472-3.696.816 0 1.464.312 1.776.84.264.408.336.888.336 1.944v5.88h1.704v-6.168c0-1.296-.168-2.04-.552-2.664-.552-.84-1.656-1.368-2.856-1.368-1.248 0-2.016.384-2.88 1.44v-1.2z"/></svg>