<svg width="50" height="18" xmlns="http://www.w3.org/2000/svg"><path d="M7.749 3.877c-.78-.455-1.417-.637-2.262-.637A4.552 4.552 0 0 0 .911 7.79c0 2.47 2.002 4.459 4.485 4.459.845 0 1.586-.208 2.353-.65v-1.573c-.858.715-1.482.988-2.34.988-1.794 0-3.185-1.417-3.185-3.237 0-1.846 1.404-3.302 3.172-3.302.871 0 1.534.273 2.353.949zm5.759-.637c-2.483 0-4.55 2.028-4.55 4.472 0 1.183.364 2.197 1.092 3.003.858.949 2.145 1.534 3.393 1.534 2.535 0 4.576-2.002 4.576-4.498a4.522 4.522 0 0 0-4.511-4.511zm-.013 1.235c1.82 0 3.211 1.43 3.211 3.276 0 1.833-1.417 3.263-3.25 3.263-.793 0-1.612-.338-2.223-.923-.65-.624-.962-1.391-.962-2.366 0-1.82 1.43-3.25 3.224-3.25zm8.554.169h1.989V3.409h-5.291v1.235h1.989v7.436h1.313zm5.551 0h1.989V3.409h-5.291v1.235h1.989v7.436H27.6zm7.28-1.404c-2.483 0-4.55 2.028-4.55 4.472 0 1.183.364 2.197 1.092 3.003.858.949 2.145 1.534 3.393 1.534 2.535 0 4.576-2.002 4.576-4.498A4.522 4.522 0 0 0 34.88 3.24zm-.013 1.235c1.82 0 3.211 1.43 3.211 3.276 0 1.833-1.417 3.263-3.25 3.263-.793 0-1.612-.338-2.223-.923-.65-.624-.962-1.391-.962-2.366 0-1.82 1.43-3.25 3.224-3.25zm6.162 7.605h1.313V6.009l6.318 6.604V3.409h-1.313v6.019l-6.318-6.604z"/></svg>